<svg width="22" height="18" viewBox="0 0 22 18" fill="none" xmlns="http://www.w3.org/2000/svg">
<path d="M21.3523 1.68479C20.0189 1.09424 18.6845 0.869568 17.3508 0.869568C13.1169 0.869205 8.88329 3.1323 4.64939 3.1323C3.58756 3.1323 2.52642 2.99001 1.4646 2.63431C1.34532 2.59438 1.22569 2.57551 1.10882 2.57551C0.517236 2.57551 0.000244141 3.05898 0.000244141 3.7301V15.2456C0.000244141 15.704 0.248772 16.1384 0.647859 16.3149C1.98124 16.9058 3.31566 17.1304 4.64939 17.1304C8.88329 17.1304 13.1172 14.8673 17.3511 14.8673C18.4129 14.8673 19.4741 15.0096 20.5359 15.3653C20.6552 15.4053 20.7748 15.4241 20.8917 15.4241C21.4833 15.4241 22.0002 14.9407 22.0002 14.2695V2.75445C21.9999 2.29566 21.7514 1.86155 21.3523 1.68479ZM1.65022 4.50721C2.34183 4.69015 3.0637 4.78198 3.80618 4.83134C3.60406 5.8981 2.71583 6.70207 1.65022 6.70207V4.50721ZM1.65022 14.8517V13.1175C2.83167 13.1175 3.78762 14.1073 3.84022 15.3461C3.06576 15.2804 2.34183 15.1171 1.65022 14.8517ZM11.0001 12.4845C9.48106 12.4845 8.25011 10.9241 8.25011 9C8.25011 7.07556 9.48141 5.51553 11.0001 5.51553C12.5187 5.51553 13.75 7.07556 13.75 9C13.75 10.9248 12.5184 12.4845 11.0001 12.4845ZM20.3499 13.4928C19.7477 13.3335 19.1224 13.2442 18.4827 13.1864C18.6845 12.2398 19.428 11.5212 20.3499 11.3978V13.4928ZM20.3499 4.92281C19.2881 4.78089 18.4641 3.8448 18.4315 2.68875C19.1032 2.76752 19.7408 2.91488 20.3499 3.14827V4.92281Z" fill="#0065FC"/>
</svg>
