<svg width="22" height="22" viewBox="0 0 22 22" fill="none" xmlns="http://www.w3.org/2000/svg">
<path d="M12.7074 0.85293C12.78 0.360723 13.1581 0 13.6011 0C13.8876 0 14.155 0.15125 14.3268 0.408289L14.9723 1.375H16.9622C17.4473 1.375 17.9171 1.59242 18.2608 1.97914L18.9445 2.75H21.0833C21.5913 2.75 22 3.21191 22 3.78125V4.8125C22 6.71172 20.6327 8.25 18.9445 8.25H16.2976L16.1029 9.56055L11.8251 6.81055L12.7074 0.85293ZM17.1112 2.75C16.7751 2.75 16.5001 3.05766 16.5001 3.4375C16.5001 3.81734 16.7751 4.125 17.1112 4.125C17.4473 4.125 17.7223 3.81734 17.7223 3.4375C17.7223 3.05766 17.4473 2.75 17.1112 2.75ZM15.889 11.0043V20.625C15.889 21.3855 15.3428 22 14.6668 22H13.4446C12.7685 22 12.2223 21.3855 12.2223 20.625V15.675C11.2713 16.2035 10.2668 16.5 9.16683 16.5C8.06684 16.5 7.02797 16.2035 6.11131 15.675V20.625C6.11131 21.3855 5.56514 22 4.88911 22H3.6669C2.99201 22 2.44469 21.3855 2.44469 20.625V10.7336C1.34585 10.2652 0.483052 9.2168 0.184986 7.87617L0.0367861 7.21016C-0.126944 6.47109 0.271228 5.72344 0.926102 5.5043C1.58075 5.3582 2.24456 5.80508 2.40841 6.53984L2.5566 7.21016C2.69257 7.82031 3.18146 8.21133 3.74214 8.21133H11.6036L15.889 11.0043Z" fill="#0065FC"/>
</svg>
