<svg width="22" height="19" viewBox="0 0 22 19" fill="none" xmlns="http://www.w3.org/2000/svg">
<path d="M0.000244141 6.22829V5.98543C0.000244141 3.05861 2.17103 0.562237 5.13071 0.0815519C7.05142 -0.236253 9.08384 0.385957 10.4846 1.75306L11.0002 2.25468L11.4772 1.75306C12.9167 0.385957 14.9104 -0.236253 16.8698 0.0815519C19.8303 0.562237 22.0002 3.05861 22.0002 5.98543V6.22829C22.0002 7.96595 21.2612 9.62825 19.9549 10.8132L12.1905 17.8769C11.8682 18.17 11.4428 18.3333 11.0002 18.3333C10.5577 18.3333 10.1323 18.17 9.81001 17.8769L2.04513 10.8132C0.740596 9.62825 0.000257031 7.96595 0.000257031 6.22829H0.000244141Z" fill="#0065FC"/>
</svg>
