<svg width="18" height="16" viewBox="0 0 18 16" fill="none" xmlns="http://www.w3.org/2000/svg">
<path d="M2.25024 13.0625C2.25024 13.3719 2.50196 13.625 2.81274 13.625H16.8752C17.4975 13.625 18.0002 14.1277 18.0002 14.75C18.0002 15.3723 17.4975 15.875 16.8752 15.875H2.81274C1.25954 15.875 0.000244141 14.6164 0.000244141 13.0625V1.25C0.000244141 0.628789 0.504033 0.125 1.12524 0.125C1.74646 0.125 2.25024 0.628789 2.25024 1.25V13.0625ZM12.0448 8.79453C11.6053 9.23398 10.8952 9.23398 10.4557 8.79453L8.43774 6.78008L5.29478 9.91953C4.85532 10.359 4.14517 10.359 3.70571 9.91953C3.26556 9.48008 3.26556 8.76992 3.70571 8.33047L7.64321 4.39297C8.08267 3.95352 8.79282 3.95352 9.23228 4.39297L11.2502 6.40742L14.9557 2.70547C15.3952 2.26531 16.1053 2.26531 16.5448 2.70547C16.9842 3.14492 16.9842 3.85508 16.5448 4.29453L12.0448 8.79453Z" fill="#0065FC"/>
</svg>
