<svg width="17" height="17" viewBox="0 0 17 17" fill="none" xmlns="http://www.w3.org/2000/svg">
<path d="M11.1598 4.6981L15.6504 5.3606C16.0223 5.41372 16.3348 5.67622 16.4535 6.0356C16.5723 6.3981 16.4754 6.79185 16.2066 7.0606L12.9504 10.2543L13.7191 14.8356C13.7816 15.2106 13.6285 15.5918 13.316 15.8137C13.0066 16.0356 12.5973 16.0637 12.2629 15.8856L8.2504 13.745L4.24103 15.8856C3.90353 16.0637 3.49415 16.0356 3.18478 15.8137C2.8754 15.5918 2.71915 15.2106 2.78478 14.8356L3.55353 10.2543L0.296652 7.0606C0.0275894 6.79185 -0.0680356 6.3981 0.0500894 6.0356C0.167902 5.67622 0.479464 5.41372 0.854152 5.3606L5.34103 4.6981L7.35352 0.562784C7.51915 0.218534 7.86915 0 8.2504 0C8.63478 0 8.98477 0.218534 9.1504 0.562784L11.1598 4.6981Z" fill="#0065FC"/>
</svg>
