<svg width="14" height="22" viewBox="0 0 14 22" fill="none" xmlns="http://www.w3.org/2000/svg">
<path d="M8.73984 2.0625C8.73984 3.2016 7.83648 4.125 6.72305 4.125C5.60961 4.125 4.70626 3.2016 4.70626 2.0625C4.70626 0.923398 5.60961 0 6.72305 0C7.83648 0 8.73984 0.923398 8.73984 2.0625ZM6.38692 15.125V20.625C6.38692 21.3855 5.78608 22 5.04239 22C4.2987 22 3.69786 21.3855 3.69786 20.625V11.0387L2.49745 13.084C2.1151 13.7328 1.28905 13.9434 0.652503 13.5523C0.0159363 13.1613 -0.18997 12.3191 0.192548 11.666L2.64114 7.50234C3.37013 6.26055 4.68105 5.5 6.097 5.5H7.34909C8.76505 5.5 10.076 6.26055 10.8071 7.50234L13.2524 11.666C13.6348 12.3191 13.4289 13.1613 12.7944 13.5523C12.1558 13.9434 11.3323 13.7328 10.9499 13.084L9.74824 11.0387V20.625C9.74824 21.3855 9.1474 22 8.40371 22C7.66002 22 7.05918 21.3855 7.05918 20.625V15.125H6.38692Z" fill="#0065FC"/>
</svg>
