<svg width="5" height="15" viewBox="0 0 5 15" fill="none" xmlns="http://www.w3.org/2000/svg">
<path d="M4.16691 13.125H3.33358V6.56251C3.33358 6.04425 2.9604 5.62501 2.50024 5.62501H0.833577C0.373421 5.62501 0.000244141 6.04425 0.000244141 6.56251C0.000244141 7.08077 0.373421 7.47364 0.833577 7.47364H1.66691V13.0986H0.833577C0.373421 13.0986 0.000244141 13.5179 0.000244141 14.0361C0.000244141 14.5544 0.373421 14.9736 0.833577 14.9736H4.16691C4.62707 14.9736 5.00024 14.5544 5.00024 14.0361C5.00024 13.5179 4.62785 13.125 4.16691 13.125ZM2.50024 3.75001C3.19061 3.75001 3.75024 3.12042 3.75024 2.34376C3.75024 1.5671 3.19035 0.937805 2.50024 0.937805C1.81014 0.937805 1.25024 1.5674 1.25024 2.34406C1.25024 3.12072 1.80988 3.75001 2.50024 3.75001Z" fill="#0065FC"/>
</svg>
